<?xml version="1.0" standalone="no"?><!DOCTYPE svg PUBLIC "-//W3C//DTD SVG 1.1//EN" "http://www.w3.org/Graphics/SVG/1.1/DTD/svg11.dtd"><svg t="1577781630244" class="icon" viewBox="0 0 1024 1024" version="1.1" xmlns="http://www.w3.org/2000/svg" p-id="8502" xmlns:xlink="http://www.w3.org/1999/xlink" width="32" height="32"><defs><style type="text/css"></style></defs><path d="M950.857143 365.714286q30.285714 0 51.714286 21.428571t21.428571 51.714286-21.428571 51.714286-51.714286 21.428571l0 219.428571q0 29.714286-21.714286 51.428571t-51.428571 21.714286q-238.285714-198.285714-464-217.142857-33.142857 10.857143-52 37.714286t-17.714286 57.428571 22.857143 52.857143q-11.428571 18.857143-13.142857 37.428571t3.428571 33.142857 19.142857 31.428571 27.428571 28.571429 35.142857 28.857143q-16.571429 33.142857-63.714286 47.428571t-96.285714 6.571429-75.428571-31.714286q-4-13.142857-16.857143-50t-18.285714-54-13.142857-50.857143-8.571429-57.714286 2-56.285714 12.571429-63.142857l-69.714286 0q-37.714286 0-64.571429-26.857143t-26.857143-64.571429l0-109.714286q0-37.714286 26.857143-64.571429t64.571429-26.857143l274.285714 0q248.571429 0 512-219.428571 29.714286 0 51.428571 21.714286t21.714286 51.428571l0 219.428571zm-73.142857 345.142857l0-545.142857q-225.142857 172.571429-438.857143 196l0 154.285714q215.428571 24 438.857143 194.857143z" p-id="8503" fill="#ffffff"></path></svg>