<?xml version="1.0" standalone="no"?><!DOCTYPE svg PUBLIC "-//W3C//DTD SVG 1.1//EN" "http://www.w3.org/Graphics/SVG/1.1/DTD/svg11.dtd"><svg t="1577339652287" class="icon" viewBox="0 0 1024 1024" version="1.1" xmlns="http://www.w3.org/2000/svg" p-id="8901" xmlns:xlink="http://www.w3.org/1999/xlink" width="32" height="32"><defs><style type="text/css"></style></defs><path d="M1024 405.714286l0 453.714286q0 37.714286-26.857143 64.571429t-64.571429 26.857143l-841.142857 0q-37.714286 0-64.571429-26.857143t-26.857143-64.571429l0-453.714286q25.142857 28 57.714286 49.714286 206.857143 140.571429 284 197.142857 32.571429 24 52.857143 37.428571t54 27.428571 62.857143 14l1.142857 0q29.142857 0 62.857143-14t54-27.428571 52.857143-37.428571q97.142857-70.285714 284.571429-197.142857 32.571429-22.285714 57.142857-49.714286zm0-168q0 45.142857-28 86.285714t-69.714286 70.285714q-214.857143 149.142857-267.428571 185.714286-5.714286 4-24.285714 17.428571t-30.857143 21.714286-29.714286 18.571429-32.857143 15.428571-28.571429 5.142857l-1.142857 0q-13.142857 0-28.571429-5.142857t-32.857143-15.428571-29.714286-18.571429-30.857143-21.714286-24.285714-17.428571q-52-36.571429-149.714286-104.285714t-117.142857-81.428571q-35.428571-24-66.857143-66t-31.428571-78q0-44.571429 23.714286-74.285714t67.714286-29.714286l841.142857 0q37.142857 0 64.285714 26.857143t27.142857 64.571429z" p-id="8902"></path></svg>