<?xml version="1.0" standalone="no"?><!DOCTYPE svg PUBLIC "-//W3C//DTD SVG 1.1//EN" "http://www.w3.org/Graphics/SVG/1.1/DTD/svg11.dtd"><svg t="1577339884408" class="icon" viewBox="0 0 1024 1024" version="1.1" xmlns="http://www.w3.org/2000/svg" p-id="10098" xmlns:xlink="http://www.w3.org/1999/xlink" width="32" height="32"><defs><style type="text/css"></style></defs><path d="M950.857143 768l0 73.142857q0 14.857143-10.857143 25.714286t-25.714286 10.857143l-804.571429 0q-14.857143 0-25.714286-10.857143t-10.857143-25.714286l0-73.142857q0-14.857143 10.857143-25.714286t25.714286-10.857143l804.571429 0q14.857143 0 25.714286 10.857143t10.857143 25.714286zm0-292.571429l0 73.142857q0 14.857143-10.857143 25.714286t-25.714286 10.857143l-804.571429 0q-14.857143 0-25.714286-10.857143t-10.857143-25.714286l0-73.142857q0-14.857143 10.857143-25.714286t25.714286-10.857143l804.571429 0q14.857143 0 25.714286 10.857143t10.857143 25.714286zm0-292.571429l0 73.142857q0 14.857143-10.857143 25.714286t-25.714286 10.857143l-804.571429 0q-14.857143 0-25.714286-10.857143t-10.857143-25.714286l0-73.142857q0-14.857143 10.857143-25.714286t25.714286-10.857143l804.571429 0q14.857143 0 25.714286 10.857143t10.857143 25.714286z" p-id="10099"></path></svg>