<?xml version="1.0" standalone="no"?><!DOCTYPE svg PUBLIC "-//W3C//DTD SVG 1.1//EN" "http://www.w3.org/Graphics/SVG/1.1/DTD/svg11.dtd"><svg t="1577339746527" class="icon" viewBox="0 0 1025 1024" version="1.1" xmlns="http://www.w3.org/2000/svg" p-id="9034" xmlns:xlink="http://www.w3.org/1999/xlink" width="32.03125" height="32"><defs><style type="text/css"></style></defs><path d="M1004 804.571429l20 178.857143q1.714286 16-9.142857 28.571429-10.857143 12-27.428571 12l-950.857143 0q-16.571429 0-27.428571-12-10.857143-12.571429-9.142857-28.571429l20-178.857143 984 0zm-53.142857-479.428571l49.142857 442.857143-976 0 49.142857-442.857143q1.714286-13.714286 12-23.142857t24.571429-9.428571l146.285714 0 0 73.142857q0 30.285714 21.428571 51.714286t51.714286 21.428571 51.714286-21.428571 21.428571-51.714286l0-73.142857 219.428571 0 0 73.142857q0 30.285714 21.428571 51.714286t51.714286 21.428571 51.714286-21.428571 21.428571-51.714286l0-73.142857 146.285714 0q14.285714 0 24.571429 9.428571t12 23.142857zm-219.428571-105.714286l0 146.285714q0 14.857143-10.857143 25.714286t-25.714286 10.857143-25.714286-10.857143-10.857143-25.714286l0-146.285714q0-60.571429-42.857143-103.428571t-103.428571-42.857143-103.428571 42.857143-42.857143 103.428571l0 146.285714q0 14.857143-10.857143 25.714286t-25.714286 10.857143-25.714286-10.857143-10.857143-25.714286l0-146.285714q0-90.857143 64.285714-155.142857t155.142857-64.285714 155.142857 64.285714 64.285714 155.142857z" p-id="9035"></path></svg>