<?xml version="1.0" standalone="no"?><!DOCTYPE svg PUBLIC "-//W3C//DTD SVG 1.1//EN" "http://www.w3.org/Graphics/SVG/1.1/DTD/svg11.dtd"><svg t="1577340226592" class="icon" viewBox="0 0 1024 1024" version="1.1" xmlns="http://www.w3.org/2000/svg" p-id="10497" xmlns:xlink="http://www.w3.org/1999/xlink" width="32" height="32"><defs><style type="text/css"></style></defs><path d="M475.428571 585.142857l0 219.428571q0 29.714286-21.714286 51.428571t-51.428571 21.714286l-292.571429 0q-29.714286 0-51.428571-21.714286t-21.714286-51.428571l0-219.428571q0-29.714286 21.714286-51.428571t51.428571-21.714286l292.571429 0q29.714286 0 51.428571 21.714286t21.714286 51.428571zm0-438.857143l0 219.428571q0 29.714286-21.714286 51.428571t-51.428571 21.714286l-292.571429 0q-29.714286 0-51.428571-21.714286t-21.714286-51.428571l0-219.428571q0-29.714286 21.714286-51.428571t51.428571-21.714286l292.571429 0q29.714286 0 51.428571 21.714286t21.714286 51.428571zm512 438.857143l0 219.428571q0 29.714286-21.714286 51.428571t-51.428571 21.714286l-292.571429 0q-29.714286 0-51.428571-21.714286t-21.714286-51.428571l0-219.428571q0-29.714286 21.714286-51.428571t51.428571-21.714286l292.571429 0q29.714286 0 51.428571 21.714286t21.714286 51.428571zm0-438.857143l0 219.428571q0 29.714286-21.714286 51.428571t-51.428571 21.714286l-292.571429 0q-29.714286 0-51.428571-21.714286t-21.714286-51.428571l0-219.428571q0-29.714286 21.714286-51.428571t51.428571-21.714286l292.571429 0q29.714286 0 51.428571 21.714286t21.714286 51.428571z" p-id="10498"></path></svg>