<?xml version="1.0" standalone="no"?><!DOCTYPE svg PUBLIC "-//W3C//DTD SVG 1.1//EN" "http://www.w3.org/Graphics/SVG/1.1/DTD/svg11.dtd"><svg t="1577339808540" class="icon" viewBox="0 0 1024 1024" version="1.1" xmlns="http://www.w3.org/2000/svg" p-id="9433" xmlns:xlink="http://www.w3.org/1999/xlink" width="32" height="32"><defs><style type="text/css"></style></defs><path d="M329.142857 768q0 14.857143-10.857143 25.714286t-25.714286 10.857143-25.714286-10.857143-10.857143-25.714286 10.857143-25.714286 25.714286-10.857143 25.714286 10.857143 10.857143 25.714286zm585.142857 34.857143q0 69.142857-41.714286 108.571429t-110.857143 39.428571l-499.428571 0q-69.142857 0-110.857143-39.428571t-41.714286-108.571429q0-38.857143 3.142857-74.857143t13.714286-78.857143 27.142857-75.714286 46.285714-58.857143 68.571429-34.571429q-12.571429 29.714286-12.571429 68.571429l0 116q-33.142857 11.428571-53.142857 40t-20 63.428571q0 45.714286 32 77.714286t77.714286 32 77.714286-32 32-77.714286q0-34.857143-20.285714-63.428571t-52.857143-40l0-116q0-35.428571 14.285714-53.142857 75.428571 59.428571 168.571429 59.428571t168.571429-59.428571q14.285714 17.714286 14.285714 53.142857l0 36.571429q-60.571429 0-103.428571 42.857143t-42.857143 103.428571l0 50.857143q-18.285714 16.571429-18.285714 40.571429 0 22.857143 16 38.857143t38.857143 16 38.857143-16 16-38.857143q0-24-18.285714-40.571429l0-50.857143q0-29.714286 21.714286-51.428571t51.428571-21.714286 51.428571 21.714286 21.714286 51.428571l0 50.857143q-18.285714 16.571429-18.285714 40.571429 0 22.857143 16 38.857143t38.857143 16 38.857143-16 16-38.857143q0-24-18.285714-40.571429l0-50.857143q0-38.857143-19.714286-72.857143t-53.428571-53.428571q0-5.714286 2.857143-24.285714t0-27.428571-1.428571-23.714286-4-26.857143-7.428571-22.857143q38.857143 8.571429 68.571429 34.571429t46.285714 58.857143 27.142857 75.714286 13.714286 78.857143 3.142857 74.857143zm-182.857143-510.285714q0 90.857143-64.285714 155.142857t-155.142857 64.285714-155.142857-64.285714-64.285714-155.142857 64.285714-155.142857 155.142857-64.285714 155.142857 64.285714 64.285714 155.142857z" p-id="9434"></path></svg>